<svg width="200" height="44" viewBox="0 0 200 44" fill="none" xmlns="http://www.w3.org/2000/svg">
<g clip-path="url(#clip0_16_330)">
<path d="M126.859 0.528121C128.427 -0.00711854 129.806 1.38175 129.806 3.0386V33.0351C129.806 37.3308 126.989 41.1593 122.886 42.4236C121.303 42.9116 119.929 41.5206 119.929 39.8638V9.86733C120.214 5.62609 123.015 1.84036 126.859 0.528121Z" fill="#ECB730"/>
<path d="M100.882 43.5659C96.649 43.5659 93.4744 42.5128 91.358 40.0556C89.2416 37.9495 88.1834 34.4392 88.1834 29.8759V21.1002C88.1834 16.8045 91.0008 12.976 95.1032 11.7116C96.6866 11.2236 98.0599 12.6146 98.0599 14.2715V29.5248C98.0599 30.5779 98.4127 31.982 98.4127 31.982C98.4127 31.982 98.6911 32.85 99 33.3378C99.4417 34.0353 99.9323 34.4318 100.5 34.8306C101.303 35.3949 102.324 35.4938 103.5 35.3282C104.823 35.1418 105.526 34.8286 106.526 33.7371C107.148 33.0573 107.231 32.6841 107.584 31.631C107.936 30.5779 107.936 29.5248 107.936 28.1207V21.1002C107.936 16.8045 110.754 12.976 114.856 11.7116C116.44 11.2236 117.813 12.6146 117.813 14.2715V33.0351C117.813 37.7412 114.432 41.8864 109.684 42.714C108.729 42.8804 107.936 42.078 107.936 41.1087C107.231 41.8108 106.173 42.1618 105.467 42.5128C104.056 43.2148 102.293 43.5659 100.882 43.5659Z" fill="#ECB730"/>
<path d="M51.8517 33.0351V9.86733C51.8517 5.69087 54.5148 2.17696 58.2567 0.726995C59.8745 0.100107 61.3756 1.50922 61.3756 3.24423V13.3776C61.3756 13.3776 61.7283 13.3776 61.7283 13.0266C62.4338 12.6755 63.1392 11.9735 63.8447 11.6225C64.5502 11.2714 65.6084 10.9204 66.6666 10.9204C67.7248 10.5694 68.783 10.5694 69.8412 10.5694C71.6048 10.5694 73.0158 10.9204 74.4267 11.2714C75.8376 11.6225 77.2486 12.3245 78.3068 13.0266C79.365 13.7286 80.4232 14.7817 81.4814 15.4838C82.5396 16.5368 83.245 17.5899 83.9505 18.994C85.3614 21.4512 85.7142 24.2594 85.7142 27.0676C85.7142 30.2268 85.0087 32.684 83.9505 35.1412C83.245 36.5453 82.5396 37.5984 81.4814 38.6515C80.4232 39.7045 79.365 40.4066 78.3068 41.1087C77.2486 41.8107 75.8376 42.5128 74.4267 42.8638C73.0158 43.2148 71.6048 43.5658 69.8412 43.5658C68.783 43.5658 67.7248 43.5658 66.6666 43.2148C65.6084 42.8638 64.9029 42.8638 63.8447 42.1617C62.7865 41.8107 62.081 41.4597 61.3756 40.7576H61.0228C61.0228 41.8958 60.0455 42.8108 58.9552 42.4837C54.9591 41.2848 51.8517 37.5465 51.8517 33.0351ZM61.0228 27.0676C61.0228 28.1207 61.0228 29.5248 61.3756 30.2268C61.7283 31.2799 62.081 31.982 62.7865 32.684C63.492 33.3861 64.1974 33.7371 65.2556 34.0881C66.3138 34.4392 67.372 34.4392 68.4302 34.4392C69.4884 34.4392 70.5466 34.0881 71.6048 33.7371C72.663 33.3861 73.3685 32.684 74.074 31.982C74.7794 31.2799 75.1322 30.5779 75.4849 29.5248C75.8376 28.4717 75.8376 27.4186 75.8376 26.3656C75.8376 25.3125 75.8376 24.2594 75.4849 23.2063C75.1322 22.1532 74.7794 21.4512 74.074 20.7491C73.3685 20.0471 72.663 19.345 71.6048 18.994C70.5466 18.643 69.4884 18.292 68.4302 18.292C67.372 18.292 66.3138 18.643 65.2556 18.994C64.1974 19.345 63.492 20.0471 62.7865 20.7491C62.081 21.4512 61.7283 22.1532 61.3756 23.2063C61.3756 24.9614 61.0228 26.0145 61.0228 27.0676Z" fill="#ECB730"/>
<path d="M35.9788 10.9204C38.0952 10.9204 40.2116 11.2715 41.6226 11.9735C43.3862 12.6756 44.7972 13.3776 45.8554 14.7817C46.9136 15.8348 47.619 17.5899 48.3245 18.994C49.03 20.7492 49.03 22.5043 49.03 24.6105V33.3861C49.03 37.3456 46.6363 40.9082 43.0491 42.4317C41.0157 43.2953 39.1534 41.424 39.1534 39.2148V24.9615C39.1534 23.9084 39.1534 23.2064 38.8007 22.5043C38.448 21.8023 38.0952 21.4512 37.7425 21.1002C37.3898 20.7492 36.6843 20.3981 35.9788 20.0471C35.2734 19.6961 34.5679 19.6961 33.8624 19.6961C33.157 19.6961 32.8042 19.6961 32.0988 20.0471C31.3933 20.3981 31.0406 20.7492 30.3351 21.1002C29.9824 21.4512 29.6296 22.1533 29.2769 22.8553C28.9242 23.5574 28.9242 24.6105 28.9242 26.0146V33.7371C28.9242 37.6967 26.5305 41.2592 22.9432 42.7827C20.9099 43.6463 19.0476 41.775 19.0476 39.5659V25.3125C19.0476 24.2594 19.0476 23.5574 18.6949 22.8553C18.3422 22.1533 17.9894 21.8022 17.6367 21.4512C17.284 21.1002 16.5785 20.7492 15.873 20.3981C15.1675 20.0471 14.4621 20.0471 13.7566 20.0471C13.0511 20.0471 12.3457 20.0471 11.9929 20.3981C11.2875 20.7492 10.9347 21.1002 10.2293 21.4512C9.17108 22.5043 8.81834 24.2594 8.81834 27.0676V34.4392C9.33789 37.5414 7.17908 40.6435 3.89174 42.0632C1.86364 42.939 0 41.0729 0 38.8638V20.3981C0.310317 16.0747 3.62364 12.5664 7.77843 11.7851C8.73107 11.606 9.52381 12.4083 9.52381 13.3776C9.87654 13.3776 10.2293 13.0266 10.2293 13.0266L12.3457 11.9735L14.4621 11.2715C14.4621 11.2715 15.873 10.9204 16.5785 10.9204C18.6949 10.9204 20.8113 11.2715 22.575 11.9735C23.9859 12.6756 25.3968 13.3776 26.455 14.7817C26.8078 14.4307 27.866 13.7287 27.866 13.7287L30.3351 12.3245L33 11.4443C33 11.4443 35.2734 10.9204 35.9788 10.9204Z" fill="#628A3A"/>
<path d="M178.483 22.8553C186.27 13.0976 189.341 11.7868 195.214 11.6334C196.936 11.5884 197.855 13.6543 196.715 14.9457L186.949 26.0145L197.436 39.2719C198.474 40.5832 197.537 42.5532 195.866 42.5692C190.325 42.6221 187.841 41.971 180.6 33.0351L178.483 35.4922V40.5127C178.483 41.6173 177.578 42.5351 176.497 42.3088C172.171 41.4035 168.959 37.5765 168.959 32.684V9.51632C168.959 5.33986 171.623 1.82595 175.364 0.375982C176.982 -0.250907 178.483 1.15821 178.483 2.89322V22.8553Z" fill="#ECB730"/>
<path d="M156.614 40.7576C155.908 41.4597 154.85 41.8107 154.145 42.1617C153.086 42.5128 152.381 42.8638 151.323 43.2148C150.265 43.5658 149.206 43.5659 148.148 43.5659C144.974 43.5659 142.152 42.8638 139.683 41.4597C138.624 40.7576 137.566 40.0556 136.508 39.0025C135.45 37.9494 134.744 36.8964 134.039 35.4923C133.333 34.0881 132.981 33.0351 132.628 31.631C132.275 30.2269 132.275 28.8228 132.275 27.4187C132.275 26.0146 132.275 24.6104 132.628 23.2063C132.981 21.8022 133.333 20.3981 134.039 19.3451C134.744 17.941 135.45 16.8879 136.508 15.8348C137.566 14.7817 138.624 14.0797 139.683 13.3776C140.741 12.6756 142.152 11.9735 143.563 11.6225C144.974 11.2715 146.384 10.9204 148.148 10.9204C149.206 10.9204 150.265 10.9204 151.323 11.2715C152.381 11.6225 153.086 11.6225 154.145 11.9735C154.85 12.3246 155.556 12.6756 156.261 13.3776C156.261 13.3776 156.614 13.3776 156.614 13.7287C158.073 11.4055 160.98 11.4847 164.138 11.5814C165.242 11.6152 166.138 12.5179 166.138 13.6225V33.3861C166.138 37.9728 162.926 41.7603 158.6 42.6606C157.519 42.8857 156.614 41.9684 156.614 40.8638V40.7576ZM156.967 27.0676C156.967 26.0146 156.967 24.9615 156.614 23.9084C156.261 22.8553 155.908 22.1533 155.203 21.4512C154.497 20.7492 153.792 20.3981 152.734 19.6961C151.675 19.3451 150.97 18.994 149.559 18.994C148.501 18.994 147.443 19.3451 146.384 19.6961C145.326 20.0471 144.621 20.3981 143.915 21.1002C143.21 21.8022 142.857 22.5043 142.504 23.5574C142.152 24.6105 142.152 25.6635 142.152 26.7166C142.152 27.7697 142.152 28.8228 142.504 29.8758C142.857 30.9289 143.21 31.631 143.915 32.333C144.621 33.0351 145.326 33.7371 146.384 34.0882C147.443 34.4392 148.148 34.7902 149.559 34.7902C150.617 34.7902 151.675 34.7902 152.734 34.4392C153.792 34.0882 154.497 33.7371 155.203 33.0351C155.908 32.333 156.261 31.631 156.614 30.5779C156.967 29.5248 156.967 28.4717 156.967 27.0676Z" fill="#ECB730"/>
</g>
<defs>
<clipPath id="clip0_16_330">
<rect width="200" height="43.787" fill="white"/>
</clipPath>
</defs>
</svg>
